<?xml version="1.0" encoding="utf-8"?>
<!-- Generator: Adobe Illustrator 17.1.0, SVG Export Plug-In . SVG Version: 6.00 Build 0)  -->
<!DOCTYPE svg PUBLIC "-//W3C//DTD SVG 1.1//EN" "http://www.w3.org/Graphics/SVG/1.1/DTD/svg11.dtd">
<svg version="1.1" id="Слой_1" xmlns="http://www.w3.org/2000/svg" xmlns:xlink="http://www.w3.org/1999/xlink" x="0px" y="0px"
	 viewBox="0 0 32 32" enable-background="new 0 0 32 32" xml:space="preserve">
<path fill="#1A5F97" d="M27.1,10.9c0,5.7-10.3,19.4-10.3,19.4S6.4,16.6,6.4,10.9S11,0.5,16.7,0.5S27.1,5.2,27.1,10.9z"/>
<path fill="#7C7C7C" d="M15.8,7.8c0,0.1,0,0.1,0,0.2c0,1.9-1.2,3.5-2.7,3.7v10.7h-0.7V11.7C10.9,11.5,9.6,9.9,9.6,8
	c0-0.1,0-0.1,0-0.2c0-0.1,0-0.1,0-0.2c0-0.8,0.2-1.6,0.5-2.3c0,0,0,0,0,0c0.5-1.4,1.3-2.6,2.2-2.8H13c0.9,0.1,1.7,1.4,2.2,2.8
	c0,0,0,0,0,0c0.3,0.7,0.5,1.4,0.5,2.3C15.8,7.6,15.8,7.7,15.8,7.8z"/>
<path fill="#7C7C7C" d="M23.8,7.8c0,0.1,0,0.1,0,0.2c0,1.9-1.2,3.5-2.7,3.7v10.7h-0.7V11.7c-1.5-0.2-2.8-1.8-2.8-3.7
	c0-0.1,0-0.1,0-0.2c0-0.1,0-0.1,0-0.2c0-0.8,0.2-1.6,0.5-2.3c0,0,0,0,0,0c0.5-1.4,1.3-2.6,2.2-2.8H21c0.9,0.1,1.7,1.4,2.2,2.8
	c0,0,0,0,0,0c0.3,0.7,0.5,1.4,0.5,2.3C23.8,7.6,23.8,7.7,23.8,7.8z"/>
<rect x="18.9" y="2.7" fill="#1A5F97" width="0.6" height="6.5"/>
<line fill="#1A5F97" x1="16.5" y1="13.7" x2="16.5" y2="20.1"/>
<rect x="21.8" y="2.7" fill="#1A5F97" width="0.6" height="6.5"/>
<rect x="20.4" y="2.3" fill="#1A5F97" width="0.6" height="6.9"/>
</svg>
