<?xml version="1.0" encoding="utf-8"?>
<!-- Generator: Adobe Illustrator 17.1.0, SVG Export Plug-In . SVG Version: 6.00 Build 0)  -->
<!DOCTYPE svg PUBLIC "-//W3C//DTD SVG 1.1//EN" "http://www.w3.org/Graphics/SVG/1.1/DTD/svg11.dtd">
<svg version="1.1" id="Слой_1" xmlns="http://www.w3.org/2000/svg" xmlns:xlink="http://www.w3.org/1999/xlink" x="0px" y="0px"
	 viewBox="0 0 32 32" enable-background="new 0 0 32 32" xml:space="preserve">
<path fill="#72B745" d="M27.1,10.9c0,5.7-10.3,19.4-10.3,19.4S6.4,16.6,6.4,10.9S11,0.5,16.7,0.5S27.1,5.2,27.1,10.9z"/>
<polyline fill="none" stroke="#EFD3D3" stroke-linecap="round" stroke-linejoin="round" stroke-miterlimit="10" points="20.4,10.4 
	21.3,8.2 24.4,8 "/>
<path fill="#EFD3D3" d="M19,15.4l-5.6,0c-0.2,0-0.4-0.2-0.5-0.4l-1.7-5.1c-0.1-0.4,0.1-0.7,0.5-0.7h8.9c0.4,0,0.6,0.4,0.5,0.7
	L19.6,15C19.5,15.2,19.3,15.4,19,15.4z"/>
<path fill="#72B745" d="M18.9,15l-5.4,0c-0.1,0-0.2-0.1-0.2-0.1l-1.7-5.1c0-0.1,0.1-0.3,0.2-0.3h8.5c0.1,0,0.2,0.1,0.2,0.3l-1.5,5
	C19.1,14.9,19,15,18.9,15z"/>
<circle fill="#EFD3D3" cx="14" cy="16.8" r="1.2"/>
<circle fill="#72B745" cx="14" cy="16.8" r="0.8"/>
<path fill="#EFD3D3" d="M18.3,15.6c-0.7,0-1.2,0.5-1.2,1.2c0,0.7,0.5,1.2,1.2,1.2c0.7,0,1.2-0.5,1.2-1.2
	C19.5,16.2,19,15.6,18.3,15.6"/>
<circle fill="#72B745" cx="18.3" cy="16.8" r="0.8"/>
</svg>
