<?xml version="1.0" encoding="utf-8"?>
<!-- Generator: Adobe Illustrator 17.1.0, SVG Export Plug-In . SVG Version: 6.00 Build 0)  -->
<!DOCTYPE svg PUBLIC "-//W3C//DTD SVG 1.1//EN" "http://www.w3.org/Graphics/SVG/1.1/DTD/svg11.dtd">
<svg version="1.1" id="Слой_1" xmlns="http://www.w3.org/2000/svg" xmlns:xlink="http://www.w3.org/1999/xlink" x="0px" y="0px"
	 viewBox="0 0 32 32" enable-background="new 0 0 32 32" xml:space="preserve">
<path fill="#E53128" d="M27.1,10.9c0,5.7-10.3,19.4-10.3,19.4S6.4,16.6,6.4,10.9S11,0.5,16.7,0.5S27.1,5.2,27.1,10.9z"/>
<path fill="#EFD3D3" d="M23.1,15.3H10.4c-0.4,0-0.7,0.4-0.7,0.8v0c0,0.5,0.3,0.8,0.7,0.8h12.7c0.4,0,0.7-0.4,0.7-0.8v0
	C23.8,15.7,23.5,15.3,23.1,15.3z"/>
<path fill="#EFD3D3" d="M22.5,13.4H11c-0.3,0-0.6,0.4-0.6,0.8v0c0,0.5,0.3,0.8,0.6,0.8h11.4c0.3,0,0.6-0.4,0.6-0.8v0
	C23.1,13.8,22.8,13.4,22.5,13.4z"/>
<path fill="#EFD3D3" d="M10.5,7.6l6.2-4.5c0,0,0.1,0,0.1,0l6.2,4.5c0.1,0.1,0.1,0.2,0,0.2H10.6C10.5,7.8,10.4,7.6,10.5,7.6z"/>
<path fill="#EFD3D3" d="M13.5,8.1h-1c-0.2,0-0.4,0.2-0.4,0.4v4.3c0,0.2,0.2,0.4,0.4,0.4h1c0.2,0,0.4-0.2,0.4-0.4V8.4
	C13.8,8.2,13.7,8.1,13.5,8.1z"/>
<path fill="#EFD3D3" d="M20.9,8.1h-1c-0.2,0-0.4,0.2-0.4,0.4v4.3c0,0.2,0.2,0.4,0.4,0.4h1c0.2,0,0.4-0.2,0.4-0.4V8.4
	C21.3,8.2,21.1,8.1,20.9,8.1z"/>
<path fill="#EFD3D3" d="M17.2,8.1h-1c-0.2,0-0.4,0.2-0.4,0.4v4.3c0,0.2,0.2,0.4,0.4,0.4h1c0.2,0,0.4-0.2,0.4-0.4V8.4
	C17.6,8.2,17.4,8.1,17.2,8.1z"/>
</svg>
