<?xml version="1.0" encoding="utf-8"?>
<!-- Generator: Adobe Illustrator 17.1.0, SVG Export Plug-In . SVG Version: 6.00 Build 0)  -->
<!DOCTYPE svg PUBLIC "-//W3C//DTD SVG 1.1 Tiny//EN" "http://www.w3.org/Graphics/SVG/1.1/DTD/svg11-tiny.dtd">
<svg version="1.1" baseProfile="tiny" id="Слой_4"
	 xmlns="http://www.w3.org/2000/svg" xmlns:xlink="http://www.w3.org/1999/xlink" x="0px" y="0px" viewBox="0 0 493.5 98.2"
	 xml:space="preserve">
<path fill="#3D8AC0" d="M35.8,0C21.4,0,9.7,11.7,9.7,26.1c0,25.2,26.1,49,26.1,49s26.1-24,26.1-49C61.9,11.7,50.2,0,35.8,0z
	 M35.7,47.3c-3.3,0-6.4-0.8-9.1-2.2V33.9c0-1.8,1.5-3.3,3.3-3.3h7.8v5l14.5-8.3l-14.5-8.4v4.9h-8.3c-5.1,0-9.2,4.1-9.2,9.2v7
	c-2.9-3.5-4.6-7.9-4.6-12.8c0-11.1,9-20.1,20.1-20.1c11.1,0,20.1,9,20.1,20.1C55.8,38.3,46.8,47.3,35.7,47.3z"/>
<path fill="#F2E493" d="M63.2,84.4H32.7l-1.7,0l0-1.7l0-1.8c0-0.5-0.3-1-0.7-1.3l-8.7-7.1l-1.4-1.1c-0.1-0.1-0.2-0.1-0.2-0.2
	l-3.5-2.9h7.1c0.5,0,1,0.2,1.3,0.6l11.5,12.5l11.5-12.5c0.3-0.4,0.8-0.6,1.3-0.6h8.1c0.7,0,1.3,0.4,1.6,1l6,12.7
	C65.4,83.1,64.5,84.4,63.2,84.4z"/>
<polygon fill="#E74C4D" points="71.2,97.6 30.8,97.6 30.8,87.7 66.8,87.7 "/>
<polygon fill="#40B497" points="12.8,69.9 27.4,80.5 27.4,97.6 0,97.6 "/>
<g>
	<path fill="#3D8AC0" d="M114.2,38.9c-0.2,2.7-1.1,5-2.5,7c-1.4,2-3.3,3.5-5.5,4.6c-4.3,2.2-9.3,3.3-15,3.3c-1,0-1.9-0.1-2.8-0.2
		c-3.3,8.4-5,14.1-5,17.1c0,0.6,0.1,1,0.2,1.3h-7.8c1.1-4.9,3.5-11.6,7.1-20.3c4.8-11.5,7.9-18,9.3-19.6c-3.4,0.1-6.9,0.8-10.4,2.1
		c-3.5,1.3-5.6,2.9-6.1,4.7c0,0.1-0.1,0.2-0.2,0.2c-0.4,0-0.5-0.3-0.5-0.8c0-0.1,0-0.3,0.1-0.6c0.8-2.2,1.9-3.9,3.3-5.1
		c1.4-1.2,2.9-2,4.3-2.2c1.4-0.3,3.1-0.4,5.2-0.4h15.3c3.7,0,6.4,0.8,8.3,2.4c1.9,1.6,2.8,3.5,2.8,5.9V38.9z M98.2,51.1
		c2.9-1,5.2-2.5,7.1-4.6c1.8-2.1,2.8-4.5,2.8-7.4c0-4.6-2.8-7.1-8.3-7.4C97,35,93.8,41,90,49.6l-1.3,3h0.7
		C92.4,52.6,95.3,52.1,98.2,51.1z"/>
	<path fill="#3D8AC0" d="M128.2,47.7l2.9,0.1c0.6,0,1,0,1.1-0.1c-1.1,0.8-2.7,3.4-4.9,8c-2.1,4.6-3.2,7.8-3.2,9.9
		c0,1.2,0.4,1.8,1.2,1.8c0.5,0,1.2-0.3,2.1-1c0.9-0.7,1.7-1.4,2.3-2.3c0.6-0.8,1.3-1.8,2.1-3c0.7-1.2,1.4-2.3,1.9-3.1
		c0.5-0.9,0.9-1.3,0.9-1.3c0.2,0,0.4,0.4,0.4,1.1c0,0.8-0.2,1.5-0.7,2.2c-5,8.3-9.1,12.5-12.5,12.5c-2.3,0-3.4-1.7-3.4-5
		c0-1,0.1-2.1,0.2-3c-3.8,5.3-7.4,8-10.8,8c-1,0-1.8-0.4-2.4-1.3c-0.6-0.8-0.9-2.1-0.9-3.7c0-1.6,0.6-4.4,1.7-8.2
		c1.2-3.8,2.6-6.9,4.3-9.4c0.4-0.6,0.8-1,1.3-1.1c0.5-0.1,1.3-0.2,2.6-0.2h2.9c-1,1.4-2.1,3.2-3.3,5.5c-2.7,5.5-4,9.5-4,12.1
		c0,1.5,0.6,2.3,1.7,2.3s2.4-1.1,4-3.2c1.5-2.1,3.2-4.9,4.9-8.3c1.7-3.4,2.8-5.3,3-5.8C125.4,48.8,126.8,47.7,128.2,47.7z"/>
	<path fill="#3D8AC0" d="M157.4,59.7c-3,5-5.7,8.5-8.2,10.5c-2.5,2-5.6,3-9.5,3c-2.3,0-4.1-0.4-5.7-1.3c-1.5-0.9-2.3-2.1-2.3-3.8
		c0-1,0.3-1.8,0.8-2.6s1.3-1.2,2.3-1.2c1,0,1.6,0.4,1.9,1.1c-0.8,0.8-1.1,1.6-1.1,2.7c0,2,1.1,3,3.4,3c1.3,0,2.5-0.5,3.5-1.4
		s1.5-1.9,1.5-3s-0.2-2.1-0.7-2.9c-0.5-0.8-1.1-1.6-1.7-2.2c-0.7-0.6-1.4-1.3-2.1-1.9c-1.6-1.6-2.5-3.4-2.5-5.4c0-2,0.8-3.7,2.3-5.1
		c1.5-1.4,3.7-2.1,6.4-2.1c1.7,0,3.1,0.3,4.3,0.9c1.2,0.6,1.7,1.5,1.7,2.8c0,1.3-0.4,2.4-1.1,3.3c-0.8,0.9-1.8,1.4-3.1,1.4
		c-1.3,0-2-0.6-2-1.8c0-0.3,0.5-0.7,1.4-1.3c0.9-0.6,1.4-1.1,1.4-1.7c0-0.6-0.3-1.1-0.8-1.4c-0.5-0.3-1.2-0.5-2.1-0.5
		c-0.9,0-1.8,0.3-2.7,1c-0.9,0.6-1.3,1.5-1.3,2.5c0,1,0.4,2,1.3,3c0.9,0.9,1.8,1.7,2.9,2.4c1,0.6,2,1.5,2.9,2.7
		c0.9,1.1,1.3,2.4,1.3,3.6c0,1.3-0.3,2.4-0.9,3.4c-0.6,1-1.3,1.8-2.1,2.4c2.3-1,4.6-3.4,7.2-7.2c0.2-0.3,0.7-1,1.3-2
		c1.4-2.5,2.2-3.8,2.4-3.8c0.2,0,0.4,0.4,0.4,1.1C158,58.3,157.8,59,157.4,59.7z"/>
	<path fill="#3D8AC0" d="M183.7,59.8c-4.9,8.3-9.1,12.5-12.5,12.5c-2.4,0-3.6-1.4-3.6-4.1c0-3.2,1.3-7.7,3.8-13.6
		c0.6-1.5,0.8-2.5,0.8-3.1c0-0.8-0.4-1.2-1.1-1.2c-0.5,0-1.3,0.3-2.4,0.8c-1.1,0.6-2.2,1.4-3.3,2.5c-1,1.1-1.9,2.3-2.6,3.8
		c-0.7,1.4-1.3,2.7-1.7,3.7c-0.4,1-0.9,2.3-1.3,3.8c-0.4,1.5-0.8,2.7-1.2,3.7c-0.3,0.9-0.7,2-1.1,3.3h-5.8c1.1-2.8,2.6-7.2,4.7-13.3
		c2-6.1,3.8-10.9,5.2-14.4c1.4-3.5,2.9-6.4,4.3-8.8c1.4-2.4,3-4.4,4.8-6c1.8-1.6,3.7-2.4,5.7-2.4c2,0,3,0.9,3,2.8
		c0,1.3-0.5,3.1-1.6,5.2c-2.3,4.6-6.2,9.9-11.7,15.9c2.2-1.6,3.9-2.6,5.2-3.1c1.3-0.5,2.5-0.7,3.6-0.7c2.3,0,3.4,1,3.4,3
		c0,0.8-0.1,1.5-0.4,2.2c-0.3,0.7-0.6,1.5-0.9,2.4c-0.3,0.9-0.6,1.6-0.8,2.2c-0.2,0.6-0.5,1.3-0.9,2.3c-0.4,1-0.6,1.8-0.8,2.5
		c-0.5,1.7-0.8,3-0.8,4c0,1,0.3,1.5,1,1.5c2.4,0,5.4-3.5,9-10.5c0.1-0.3,0.3-0.4,0.5-0.4c0.2,0,0.3,0.4,0.3,1.1
		C184.4,58.3,184.2,59.1,183.7,59.8z M176.5,28.6c-1.4,0-3.2,2.2-5.5,6.7c-2.3,4.5-4.5,9.6-6.7,15.4c5.5-6.5,9.3-11.8,11.3-15.9
		c1.1-2.5,1.7-4.2,1.7-5C177.2,29,177,28.6,176.5,28.6z"/>
	<path fill="#3D8AC0" d="M243.1,29.9c-3.8,2.6-7.5,6-11.2,10.2c-4.6,5.2-8.2,10.8-11,16.8c-1.5,3.4-2.7,6.9-3.4,10.3
		c-0.3,1.5-0.5,2.6-0.5,3.3s0.1,1.2,0.2,1.5h-7.8c0.2-0.7,1-3.2,2.4-7.5c1.4-4.3,2.1-7.4,2.1-9.3c0-1.9-0.5-4.5-1.4-7.7
		c-0.9-3.2-2.2-6.2-3.7-8.8c-1.5-2.7-3-4-4.5-4c-1.8,0-3.9,1.6-6.3,4.7c0,0-0.1,0.1-0.1,0.1c-0.2,0-0.3-0.2-0.3-0.5
		c0-0.3,0-0.5,0.1-0.5c1.4-2.9,2.9-5,4.5-6.3c1.6-1.3,3.6-2,6-2c2.4,0,4.2,0.6,5.2,1.9c1.1,1.2,2.2,3.7,3.3,7.5
		c1.1,3.8,2.2,7.8,3.3,12.2c0.8-1.2,3.1-4.4,6.8-9.6c3.7-5.2,6.3-8.9,7.9-11c0.6-0.8,2.3-1.3,4.9-1.3c0.4,0,1.1,0,1.8,0
		C242.3,29.9,242.8,29.9,243.1,29.9z"/>
	<path fill="#3D8AC0" d="M257.9,57.1c0.1-0.2,0.2-0.4,0.4-0.4c0.2,0,0.4,0.3,0.4,0.9c0,1.9-0.8,3.5-2.3,4.8c-1.5,1.3-3,1.9-4.3,1.9
		c-1.3,0-2.5-0.4-3.5-1.1c-1.4,2.9-3.2,5.1-5.2,6.8c-2,1.6-4.6,2.5-7.7,2.5c-2,0-3.6-0.6-4.9-1.8c-1.3-1.2-1.9-3.1-1.9-5.6
		c0-2.5,0.6-5.1,1.7-7.8c1.1-2.7,2.9-5,5.2-6.9c2.3-1.9,4.9-2.9,7.7-2.9c4.8,0,7.2,2.5,7.2,7.6c0,1.9-0.4,4-1.3,6.1
		c0.6,0.8,1.5,1.3,2.6,1.3C254,62.4,256,60.6,257.9,57.1z M247.8,53.4c-0.2-2.1-1.1-3.2-2.9-3.2c-2.8,0-5.5,2.7-8.1,8.1
		c-1.4,3-2.2,5.7-2.2,8.1c0,2.4,1,3.7,3.1,3.8c1.7,0,3.3-0.9,4.8-2.7c1.5-1.8,2.7-3.8,3.7-6.1c-1.4-1.2-2-2.6-2-4.4
		c0-1.1,0.3-1.9,0.9-2.6c0.6-0.6,1.4-1,2.4-1H247.8z"/>
	<path fill="#3D8AC0" d="M278.8,47.7l2.9,0.1c0.6,0,1,0,1.1-0.1c-1.1,0.8-2.7,3.4-4.9,8c-2.1,4.6-3.2,7.8-3.2,9.9
		c0,1.2,0.4,1.8,1.2,1.8c0.5,0,1.2-0.3,2.1-1c0.9-0.7,1.7-1.4,2.3-2.3c0.6-0.8,1.3-1.8,2.1-3c0.7-1.2,1.4-2.3,1.9-3.1
		c0.5-0.9,0.9-1.3,0.9-1.3c0.2,0,0.4,0.4,0.4,1.1c0,0.8-0.2,1.5-0.7,2.2c-5,8.3-9.1,12.5-12.5,12.5c-2.3,0-3.4-1.7-3.4-5
		c0-1,0.1-2.1,0.2-3c-3.8,5.3-7.4,8-10.8,8c-1,0-1.8-0.4-2.4-1.3c-0.6-0.8-0.9-2.1-0.9-3.7c0-1.6,0.6-4.4,1.7-8.2
		c1.2-3.8,2.6-6.9,4.3-9.4c0.4-0.6,0.8-1,1.3-1.1c0.5-0.1,1.3-0.2,2.6-0.2h2.9c-1,1.4-2.1,3.2-3.3,5.5c-2.7,5.5-4,9.5-4,12.1
		c0,1.5,0.6,2.3,1.7,2.3s2.4-1.1,4-3.2c1.5-2.1,3.2-4.9,4.9-8.3c1.7-3.4,2.8-5.3,3-5.8C276,48.8,277.5,47.7,278.8,47.7z"/>
	<path fill="#3D8AC0" d="M299.2,47.7l3.1,0.1h0.6c-0.6,0.4-1.5,1.7-2.6,3.9s-1.9,3.8-2.5,4.9c-0.5,1.1-1.1,2.6-1.8,4.5
		c-0.7,1.9-1,3.4-1,4.6c0,1.2,0.4,1.7,1.2,1.7c0.5,0,1.3-0.4,2.2-1.1c0.9-0.7,1.7-1.4,2.4-2.2s1.3-1.8,2.1-3
		c0.7-1.2,1.4-2.3,1.9-3.2c0.5-0.9,0.9-1.4,0.9-1.4c0.3,0,0.4,0.4,0.4,1.1c0,0.7-0.2,1.5-0.6,2.1c-1.7,2.9-3.2,5-4.3,6.6
		s-2.5,2.9-4.1,4.2c-1.6,1.3-3,1.9-4.3,1.9c-2.3,0-3.4-1.7-3.4-5.1c0-2.3,0.4-4.9,1.3-7.8c0.9-2.9,2.2-5.7,3.9-8.4
		c-1.4,1.1-2.8,1.7-4.2,1.7c-0.4,0-0.9-0.1-1.4-0.3c-2.9,5.6-4.4,8.4-4.6,8.4c-0.2,0-0.3-0.3-0.3-1c0-0.7,0.3-1.6,0.8-2.8
		c0.5-1.2,1-2.3,1.6-3.4c0.6-1.1,0.9-1.7,0.9-1.8c-1.4-0.7-2.2-1.9-2.2-3.5c0-0.8,0.2-1.5,0.8-2.2c0.5-0.6,1.2-1,2.1-1
		c0.9,0,1.6,0.3,2.2,0.8c-0.1,0.2-0.1,0.6-0.1,1.1c0,1.1,0.4,1.9,1.2,2.6c0.8,0.6,1.7,0.9,2.9,0.9c0.3,0,0.6,0,0.7-0.1
		C296.3,48.7,297.7,47.7,299.2,47.7z"/>
	<path fill="#3D8AC0" d="M356.2,38.9c-0.4,4.3-3.1,7.5-8.1,9.7c-1.2,0.5-2.4,0.8-3.6,1.1c6.3,1.2,9.4,4.1,9.4,8.9
		c0,4.1-2.2,7.5-6.5,10.3c-4.3,2.8-9.7,4.2-16.1,4.2c-3.1,0-5.8-0.5-7.8-1.5c-2.1-1-3.1-2.6-3.1-4.9c0-2.8,1.5-7.7,4.5-14.7
		c3-7,5.7-13,8.3-17.9c0.4-0.8,0.7-1.4,0.9-1.7l-2.2,0.3c-3.1,0.4-6,1.2-8.7,2.2c-2.6,1-4.4,2.4-5.3,3.9c0,0.1-0.1,0.2-0.3,0.2
		c-0.2,0-0.2-0.1-0.2-0.3c0-0.2,0-0.4,0.1-0.5c1.5-4.2,4.3-6.7,8.4-7.7c1.8-0.4,4.3-0.6,7.4-0.6h11.9c3.7,0,6.4,0.8,8.3,2.4
		c1.9,1.6,2.8,3.5,2.8,5.9V38.9z M349.9,37.3c-0.4-3.5-3.2-5.4-8.4-5.7c-1.9,2.5-4.4,7.1-7.5,13.8c-3.1,6.8-5.1,11.6-5.9,14.6
		c-0.8,3-1.3,5.3-1.3,6.8c0,1.5,0.4,2.6,1.3,3c0.9,0.5,2.4,0.7,4.4,0.7c3.8,0,7.2-1,10-3.1c2.9-2.1,4.3-5.2,4.3-9.3
		c0-2-0.5-3.7-1.5-5.2c-1-1.4-2.4-2.3-4.3-2.5c-2.5,0.7-4.9,1-7.2,1c-0.7,0-1-0.1-1-0.4c0-0.9,0.6-1.6,1.9-1.9
		c1.2-0.3,2.4-0.5,3.6-0.5s2.2,0.1,3.3,0.2c2.6-0.8,4.7-2.3,6.1-4.3c1.5-2.1,2.2-4.3,2.2-6.5V37.3z"/>
	<path fill="#3D8AC0" d="M385.3,57.1c0.1-0.2,0.2-0.4,0.4-0.4c0.2,0,0.4,0.3,0.4,0.9c0,1.9-0.8,3.5-2.3,4.8c-1.5,1.3-3,1.9-4.3,1.9
		s-2.5-0.4-3.5-1.1c-1.4,2.9-3.2,5.1-5.2,6.8c-2,1.6-4.6,2.5-7.7,2.5c-2,0-3.6-0.6-4.9-1.8c-1.3-1.2-1.9-3.1-1.9-5.6
		c0-2.5,0.6-5.1,1.7-7.8c1.1-2.7,2.9-5,5.2-6.9c2.3-1.9,4.9-2.9,7.7-2.9c4.8,0,7.2,2.5,7.2,7.6c0,1.9-0.4,4-1.3,6.1
		c0.6,0.8,1.5,1.3,2.6,1.3C381.5,62.4,383.5,60.6,385.3,57.1z M375.3,53.4c-0.2-2.1-1.1-3.2-2.9-3.2c-2.8,0-5.5,2.7-8.1,8.1
		c-1.4,3-2.2,5.7-2.2,8.1c0,2.4,1,3.7,3.1,3.8c1.7,0,3.3-0.9,4.8-2.7c1.5-1.8,2.7-3.8,3.7-6.1c-1.4-1.2-2.1-2.6-2.1-4.4
		c0-1.1,0.3-1.9,0.9-2.6c0.6-0.6,1.4-1,2.4-1H375.3z"/>
	<path fill="#3D8AC0" d="M399.6,47.7l3.1,0.1h0.6c-0.6,0.4-1.5,1.7-2.6,3.9s-1.9,3.8-2.5,4.9c-0.5,1.1-1.1,2.6-1.8,4.5
		c-0.7,1.9-1,3.4-1,4.6c0,1.2,0.4,1.7,1.2,1.7c0.5,0,1.3-0.4,2.2-1.1c0.9-0.7,1.7-1.4,2.4-2.2s1.3-1.8,2.1-3
		c0.7-1.2,1.4-2.3,1.9-3.2c0.5-0.9,0.9-1.4,0.9-1.4c0.3,0,0.4,0.4,0.4,1.1c0,0.7-0.2,1.5-0.6,2.1c-1.7,2.9-3.2,5-4.3,6.6
		s-2.5,2.9-4.1,4.2c-1.6,1.3-3,1.9-4.3,1.9c-2.3,0-3.4-1.7-3.4-5.1c0-2.3,0.4-4.9,1.3-7.8c0.9-2.9,2.2-5.7,3.9-8.4
		c-1.4,1.1-2.8,1.7-4.2,1.7c-0.4,0-0.9-0.1-1.4-0.3c-2.9,5.6-4.4,8.4-4.6,8.4c-0.2,0-0.3-0.3-0.3-1c0-0.7,0.2-1.6,0.8-2.8
		c0.5-1.2,1-2.3,1.6-3.4c0.6-1.1,0.9-1.7,0.9-1.8c-1.4-0.7-2.2-1.9-2.2-3.5c0-0.8,0.2-1.5,0.8-2.2c0.5-0.6,1.2-1,2.1-1
		s1.6,0.3,2.2,0.8c-0.1,0.2-0.1,0.6-0.1,1.1c0,1.1,0.4,1.9,1.2,2.6c0.8,0.6,1.7,0.9,2.9,0.9c0.3,0,0.6,0,0.7-0.1
		C396.7,48.7,398.1,47.7,399.6,47.7z"/>
	<path fill="#3D8AC0" d="M437.7,32.5c-1.3,1-3.1,3.7-5.2,8.1c-2.2,4.4-4,9.1-5.7,14c-1.6,4.9-2.5,8.5-2.5,10.7c0,1.3,0.3,1.9,1,1.9
		c0.7,0,1.5-0.4,2.6-1.3c1-0.9,1.8-1.6,2.2-2.2c0.4-0.6,1-1.5,1.8-2.7c0.7-1.2,1.4-2.3,1.9-3.2c0.5-0.9,0.9-1.4,0.9-1.4
		c0.3,0,0.4,0.4,0.4,1.1c0,1.4-1.7,4.3-5,8.8c-1.1,1.4-2.4,2.8-3.9,4c-1.5,1.2-2.9,1.9-4.2,1.9c-2.1,0-3.2-1.6-3.2-4.8
		c0-2.3,0.6-5.3,1.7-9c-1.8,3.7-4,6.8-6.3,9.5c-2.4,2.7-4.7,4-7.1,4c-2.7,0-4-1.8-4-5.5c0-2.8,0.6-5.7,1.8-8.6
		c1.2-2.9,3-5.4,5.3-7.4c2.3-2,4.8-3,7.4-3c2.7,0,4.5,0.9,5.5,2.7c1.1-2.2,2.3-4.8,3.5-7.7c1.2-2.9,2-4.8,2.4-5.6
		c0.4-0.9,0.7-1.5,0.8-1.9s0.4-0.8,0.7-1.1c0.4-0.6,1-0.9,1.6-1.1c0.6-0.1,1.6-0.2,3-0.2C436.6,32.6,437.4,32.6,437.7,32.5z
		 M422.9,51c-0.5-0.7-1.3-1.1-2.4-1.1c-1.8,0-3.6,0.9-5.5,2.7c-1.8,1.8-3.3,3.9-4.4,6.3c-1.1,2.4-1.7,4.5-1.7,6.3
		c0,1.2,0.5,1.9,1.4,1.9C413.7,67.1,417.9,61.7,422.9,51z"/>
	<path fill="#3D8AC0" d="M456.5,56.3c0.2,0,0.4,0.4,0.4,1.2c0,0.8-0.3,1.7-1,2.8c-0.6,1.1-1.3,2.1-1.9,3.1c-0.6,1-1.5,2.1-2.5,3.4
		c-1,1.3-2.1,2.3-3.1,3.1c-2.5,1.8-5.1,2.8-7.6,2.8s-4.6-0.7-6.2-2c-1.6-1.3-2.4-3.3-2.4-6c0-4.1,1.5-7.9,4.5-11.4
		c3-3.5,6.5-5.2,10.6-5.2c1.8,0,3.3,0.5,4.3,1.4c1.1,0.9,1.6,2.1,1.6,3.4c0,2.3-1.1,4.1-3.2,5.4c-2.1,1.4-4.6,2.1-7.5,2.1
		c-1.7,0-2.9-0.2-3.7-0.7c-0.8,2.1-1.1,3.9-1.1,5.4c0,3.4,1.4,5.1,4.3,5.1c1.7,0,3.4-0.7,5.2-2c1.8-1.3,3.3-2.8,4.6-4.4
		c1.3-1.6,2.7-4,4.3-7C456.2,56.4,456.4,56.3,456.5,56.3z M450.1,51.5c0-1.2-0.6-1.7-1.7-1.7c-1.6,0-3.3,1-5.2,2.9
		c-1.9,1.9-2.9,3.5-2.9,4.7c0,0.8,0.8,1.2,2.3,1.2c1.5,0,3.1-0.7,4.8-2.2C449,54.9,449.9,53.2,450.1,51.5z"/>
	<path fill="#3D8AC0" d="M470.1,47.7l3.1,0.1h0.6c-0.6,0.4-1.5,1.7-2.6,3.9s-1.9,3.8-2.5,4.9c-0.5,1.1-1.1,2.6-1.8,4.5
		c-0.7,1.9-1,3.4-1,4.6c0,1.2,0.4,1.7,1.2,1.7c0.5,0,1.3-0.4,2.2-1.1c0.9-0.7,1.7-1.4,2.4-2.2s1.3-1.8,2.1-3
		c0.7-1.2,1.4-2.3,1.9-3.2c0.5-0.9,0.9-1.4,0.9-1.4c0.3,0,0.4,0.4,0.4,1.1c0,0.7-0.2,1.5-0.6,2.1c-1.7,2.9-3.2,5-4.3,6.6
		s-2.5,2.9-4.1,4.2c-1.6,1.3-3,1.9-4.3,1.9c-2.3,0-3.4-1.7-3.4-5.1c0-2.3,0.4-4.9,1.3-7.8c0.9-2.9,2.2-5.7,3.9-8.4
		c-1.4,1.1-2.8,1.7-4.2,1.7c-0.4,0-0.9-0.1-1.4-0.3c-2.9,5.6-4.4,8.4-4.6,8.4c-0.2,0-0.3-0.3-0.3-1c0-0.7,0.2-1.6,0.8-2.8
		c0.5-1.2,1-2.3,1.6-3.4c0.6-1.1,0.9-1.7,0.9-1.8c-1.4-0.7-2.2-1.9-2.2-3.5c0-0.8,0.2-1.5,0.8-2.2c0.5-0.6,1.2-1,2.1-1
		c0.9,0,1.6,0.3,2.2,0.8c-0.1,0.2-0.1,0.6-0.1,1.1c0,1.1,0.4,1.9,1.2,2.6c0.8,0.6,1.7,0.9,2.9,0.9c0.3,0,0.6,0,0.7-0.1
		C467.2,48.7,468.7,47.7,470.1,47.7z"/>
	<path fill="#3D8AC0" d="M481.5,73.2c-2.3,0-4.1-0.4-5.7-1.3c-1.5-0.9-2.3-2.1-2.3-3.8c0-1,0.3-1.8,0.8-2.6c0.6-0.8,1.3-1.2,2.3-1.2
		c1,0,1.6,0.4,1.9,1.1c-0.8,0.8-1.1,1.6-1.1,2.7c0,2,1.1,3,3.4,3c1.3,0,2.5-0.5,3.5-1.4c1-0.9,1.5-1.9,1.5-3s-0.2-2.1-0.7-2.9
		c-0.5-0.8-1.1-1.6-1.7-2.2c-0.7-0.6-1.4-1.3-2.1-1.9c-1.6-1.6-2.5-3.4-2.5-5.4c0-2,0.8-3.7,2.3-5.1c1.5-1.4,3.7-2.1,6.4-2.1
		c1.7,0,3.1,0.3,4.3,0.9c1.2,0.6,1.7,1.5,1.7,2.8c0,1.3-0.4,2.4-1.1,3.3c-0.8,0.9-1.8,1.4-3.1,1.4c-1.3,0-2-0.6-2-1.8
		c0-0.3,0.5-0.7,1.4-1.3c0.9-0.6,1.4-1.1,1.4-1.7c0-0.6-0.3-1.1-0.8-1.4s-1.2-0.5-2.1-0.5s-1.8,0.3-2.7,1c-0.9,0.6-1.3,1.5-1.3,2.5
		c0,1,0.4,2,1.3,3c0.9,0.9,1.8,1.7,2.9,2.4c1,0.6,2,1.5,2.9,2.7c0.9,1.1,1.3,2.4,1.3,3.6c0,1.3-0.3,2.4-0.9,3.4
		c-0.6,1-1.3,1.8-2.1,2.4C486.6,71.9,484.2,73,481.5,73.2z"/>
</g>
</svg>
